<?xml version="1.0" encoding="utf-8"?>
<!-- Generator: Adobe Illustrator 16.0.0, SVG Export Plug-In . SVG Version: 6.00 Build 0)  -->
<!DOCTYPE svg PUBLIC "-//W3C//DTD SVG 1.1//EN" "http://www.w3.org/Graphics/SVG/1.1/DTD/svg11.dtd">
<svg version="1.1" id="Layer_1" xmlns="http://www.w3.org/2000/svg" xmlns:xlink="http://www.w3.org/1999/xlink" x="0px" y="0px"
	 width="446.357px" height="606.383px" viewBox="0 0 446.357 606.383" enable-background="new 0 0 446.357 606.383"
	 xml:space="preserve">
<g>
	<defs>
		<rect id="SVGID_1_" width="446.357" height="606.383"/>
	</defs>
	<clipPath id="SVGID_2_">
		<use xlink:href="#SVGID_1_"  overflow="visible"/>
	</clipPath>
	<polygon clip-path="url(#SVGID_2_)" fill="#C0BEBE" points="438.006,515.331 438.006,515.344 419.224,515.344 419.224,515.331 
		419.828,515.331 419.828,484.387 419.828,475.435 410.83,475.435 410.83,475.447 405.347,475.447 366.248,475.447 351.108,475.447 
		324.808,475.447 304.168,475.447 299.479,475.447 247.2,475.447 247.209,475.435 240.438,475.435 235.203,475.435 217.058,461.457 
		194.267,443.908 205.71,475.421 205.707,475.421 205.71,475.435 139.169,475.435 137.039,475.435 122.904,475.435 122.918,475.447 
		110.888,475.447 27.557,475.447 27.557,515.331 27.554,515.331 27.554,515.344 0,515.344 0,606.371 5.287,606.371 89.484,606.371 
		89.497,606.371 91.351,606.371 200.398,606.371 350.129,606.371 365.456,606.371 392.481,606.371 438.006,606.371 438.006,606.384 
		446.356,606.384 446.356,527.87 446.356,515.331 	"/>
	<path clip-path="url(#SVGID_2_)" fill="#C0BEBE" d="M194.256,443.9L92.401,365.415c0.011,0.02,0.021,0.038,0.037,0.049
		l-0.007,0.008l0.005,0.008c-0.228,0.222-2.679,2.469-7.292,6.655c-0.943,0.859-1.945,1.771-3.072,2.797
		c-1.284,1.121-2.629,2.316-3.979,3.518c-5.558,4.952-11.655,10.515-18.367,16.785c-3.798,3.638-7.299,7.02-10.524,10.163
		c-3.61,3.523-6.872,6.742-9.76,9.635c-2.195,2.058-3.782,3.639-4.816,4.787c-1.225,1.361-1.661,2.103-1.26,2.185
		c0.106,0.02,0.266-0.002,0.482-0.069h0.003h0.002c5.076,0.122,10.285,1.004,15.615,2.572c4.154,1.222,8.385,2.885,12.69,4.98
		c2.026,0.984,4.062,2.028,6.122,3.203c12.098,7.174,23.605,15.377,34.51,24.575c0.621,0.546,1.219,1.058,1.843,1.625
		c2.703,2.349,5.309,4.646,7.772,6.837c3.814,3.44,7.298,6.648,10.502,9.693h14.128h68.671l-11.439-31.513L194.256,443.9z"/>
	<path clip-path="url(#SVGID_2_)" fill="#C0BEBE" d="M247.2,475.421c1.122-1.84,2.204-3.586,3.26-5.275
		c2.658-4.271,5.119-8.07,7.353-11.379c1.098-1.629,2.146-3.149,3.138-4.55c6.041-8.041,9.941-13.939,11.687-17.649
		c1.414-4.017,0.4-7.735-3.05-11.182c-3.721-3.175-10.479-8.228-20.285-15.124c-8.404-5.657-19.375-13.911-32.896-24.743
		c-2.18-1.745-4.411-3.542-6.726-5.421c-0.332-0.275-0.688-0.582-1.023-0.861c0.342,0.284,0.692,0.58,1.031,0.861
		c2.311,1.88,4.54,3.676,6.718,5.421c13.523,10.823,24.493,19.077,32.899,24.743c9.81,6.904,16.55,11.936,20.281,15.112
		c3.45,3.458,4.475,7.177,3.054,11.193c-1.745,3.71-5.649,9.608-11.69,17.657c-0.989,1.396-2.039,2.914-3.138,4.542
		c-2.233,3.313-4.688,7.113-7.353,11.379c-1.055,1.692-2.134,3.444-3.251,5.289h52.267l-97.521-285.152l-56.757,93.51l0.002,0.009
		h-0.008l-25.077-133.463L98.15,179.006l-5.428,7.085l0.001-0.004l5.427-7.083l21.964-28.666l-15.222-28.305
		c-0.258,0.771-0.509,1.544-0.759,2.317c0.252-0.781,0.483-1.568,0.743-2.347l0.016,0.03l0.001-0.006l-0.01-0.024
		c0.074-0.219,0.159-0.437,0.233-0.656c0.244-0.724,0.486-1.448,0.737-2.17c0.682-1.964,1.38-3.924,2.114-5.873
		c0.856-2.349,1.731-4.678,2.624-6.99c0.048-0.125,0.099-0.248,0.148-0.373c0.619-1.6,1.257-3.182,1.893-4.766
		c0.018-0.046,0.036-0.092,0.054-0.138c-0.656,1.628-1.309,3.259-1.947,4.904c-0.942,2.437-1.87,4.887-2.772,7.363
		c-1.002,2.668-1.942,5.354-2.851,8.043c-0.076,0.225-0.146,0.451-0.221,0.677l15.222,28.304l39.438-51.489l-3.776-2.531
		l-3.709-2.479l4.818-3.18l16.787-11.109l0.001,0.025l-16.788,11.084l-4.806,3.18l3.697,2.479l3.784,2.529l-0.008,0.002
		l-39.441,51.499l25.083,133.454l56.755-93.516l-0.003-0.008l0.003-0.005l-0.002-0.004l-0.005,0.009l-12.521-36.621l-5.935-17.349
		v-0.009v-0.002v-0.002l1.277-20.899l-1.269,20.885l-0.001,0.014h0.003l30.133-5.617l17.047-3.172l0.007-0.003l43.794-19.079
		l5.321-34.992c-5.571-3.709-10.962-7.33-16.184-10.876c-5.516-3.742-10.843-7.403-15.964-10.981l0.006-0.007
		c-0.542-0.37-1.099-0.748-1.63-1.106c-5.918-4.154-11.56-8.168-16.954-12.079c-22.647-16.396-39.695-29.027-51.192-37.945
		l-0.043,0.815l0.036-0.815c-0.179-0.141-0.396-0.289-0.561-0.428c-15.155,15.424-28.409,32.246-39.725,50.452
		c-0.207,0.31-0.397,0.613-0.588,0.916c-0.065,0.105-0.138,0.211-0.201,0.317c-0.074,0.125-0.144,0.254-0.217,0.38
		c-1.681,2.871-3.249,5.832-4.856,8.746l-0.117,0.058l-0.003,0.005l0.105-0.052c-6.683,12.204-12.805,24.985-18.293,38.385
		c5.451-13.379,11.516-26.156,18.188-38.333L66.904,92.907l27.373,75.423c0.899-6.939,2.096-13.799,3.568-20.587
		c0.025-0.117,0.046-0.235,0.071-0.352c0.007-0.03,0.013-0.06,0.019-0.089c0.024-0.109,0.052-0.216,0.076-0.324
		c-0.056,0.254-0.11,0.51-0.166,0.765c-1.465,6.805-2.65,13.683-3.549,20.639c-0.606,4.615-1.103,9.265-1.44,13.937
		c-0.027,0.377-0.041,0.755-0.066,1.131c0.018-0.377,0.029-0.755,0.056-1.131c0.342-4.699,0.832-9.358,1.431-13.989L66.902,92.924
		L48.855,281.553c-0.002-0.006-0.005-0.011-0.005-0.011l-0.003,0.009l0.008,0.019c0.197,0.495,0.422,1.006,0.623,1.504
		c7.644,18.931,17.546,39.053,29.794,60.414c4.11,7.163,8.476,14.461,13.11,21.898l0.003,0.005l101.868,78.501l0.01,0.008
		l22.794,17.557l18.135,13.964H247.2z M212.104,114.814l-8.138-5.555l-1.238-0.845l-2.789-2.889l0.068-0.127l2.732,3.016
		l1.231,0.839l8.145,5.553L212.104,114.814z M210.697,82.569L210.697,82.569l0.01,0.002l0.002-0.002l0.805,0.108l0.6,0.077
		l-0.003,0.007l-0.008-0.007l-0.589-0.077l-0.807-0.106l-0.088,0.073L210.697,82.569h-0.004h0.001H210.697z M102.987,127.979
		c-0.005,0.016-0.01,0.032-0.015,0.048c-0.366,1.203-0.719,2.409-1.067,3.617C102.259,130.42,102.615,129.196,102.987,127.979
		 M99.339,141.261c0.122-0.502,0.244-1.005,0.37-1.505c0.041-0.163,0.087-0.324,0.128-0.487c-0.181,0.71-0.357,1.421-0.531,2.132
		C99.318,141.354,99.328,141.307,99.339,141.261 M192.633,365.357c-0.72-0.644-1.428-1.272-2.159-1.931
		c-0.322-0.29-0.662-0.604-0.987-0.897C190.548,363.488,191.597,364.431,192.633,365.357 M176.076,350.168
		c0.09,0.084,0.185,0.176,0.275,0.26c-0.015-0.014-0.029-0.025-0.043-0.039c-1.486-1.395-2.993-2.813-4.518-4.258
		c-0.619-0.586-1.247-1.184-1.871-1.777C172.009,346.344,174.056,348.272,176.076,350.168 M136.697,310.761
		c-2.377-2.749-4.562-5.522-6.732-8.298C132.129,305.238,134.327,308.012,136.697,310.761 M125.365,296.442
		c-2.19-3.031-4.189-6.087-6.135-9.15C121.173,290.356,123.18,293.41,125.365,296.442 M92.625,189.865
		c-0.076,2.802-0.161,5.606-0.099,8.408C92.463,195.47,92.549,192.668,92.625,189.865 M92.756,202.636
		c0.134,2.837,0.253,5.673,0.529,8.51C93.007,208.31,92.893,205.473,92.756,202.636 M93.949,216.2
		c0.329,2.589,0.612,5.179,1.059,7.768C94.559,221.379,94.279,218.791,93.949,216.2 M104.176,257.744
		c1.132,3.031,2.533,6.024,3.893,9.023c-0.609-1.355-1.386-2.688-1.95-4.048C105.436,261.065,104.793,259.406,104.176,257.744
		 M115.672,281.561c-1.445-2.481-2.792-4.973-4.078-7.474C112.889,276.587,114.228,279.082,115.672,281.561 M147.647,322.756
		c-0.104-0.104-0.187-0.214-0.291-0.318c0.101,0.101,0.195,0.204,0.296,0.306c0.599,0.596,1.186,1.172,1.777,1.755
		c0.445,0.438,0.895,0.881,1.34,1.32c0.332,0.325,0.664,0.648,0.996,0.972c0.618,0.604,1.236,1.207,1.857,1.812
		c5.437,5.333,10.666,10.391,15.696,15.182c-1.702-1.619-3.42-3.261-5.168-4.941c-1.443-1.39-2.905-2.802-4.381-4.231
		c-1.3-1.261-2.611-2.535-3.937-3.829c-1.341-1.309-2.694-2.632-4.061-3.974C150.389,325.457,149.054,324.137,147.647,322.756
		 M196.053,368.397c1,0.884,1.989,1.752,2.967,2.604c-0.631-0.55-1.248-1.082-1.888-1.646
		C196.779,369.046,196.408,368.71,196.053,368.397 M203.091,374.532c-0.187-0.161-0.385-0.335-0.573-0.497
		c0.826,0.711,1.643,1.409,2.452,2.096C204.346,375.601,203.727,375.076,203.091,374.532"/>
	<path clip-path="url(#SVGID_2_)" fill="#C0BEBE" d="M202.739,188.964l-0.786,1.3l0.002,0.008l0.003-0.004l97.518,285.167h4.701
		h20.631h13.175h13.146c4.832-3.048,10.069-6.477,15.827-10.438c5.131-3.514,10.064-7.253,14.812-11.207
		c4.58-3.816,8.984-7.831,13.2-12.057c7.292-7.531,12.502-15.39,15.642-23.583c0.448-1.171,0.855-2.348,1.219-3.531
		c0.179-0.974,0.257-1.997,0.236-3.071c-0.068-3.587-1.251-7.753-3.518-12.484c-2.491-5.195-6.293-11.073-11.44-17.649
		c-4.796-6.041-10.24-12.394-16.255-19.019c-8.004-8.813-17.047-18.124-27.209-27.976c-17.53-16.924-35.344-33.307-53.483-49.149
		c-2.259-1.972-4.473-3.903-6.638-5.794c-15.159-13.238-28.009-24.507-38.571-33.805c-3.606-3.266-6.664-6.112-9.197-8.558
		c-5.958-5.742-8.956-9.222-8.956-10.419c11.499-10.362,22.719-16.374,33.615-18.067c10.946-2.043,21.306-1.34,31.05,2.12
		c9.76,3.439,18.396,7.755,25.896,12.913c7.729,5.203,13.893,9.656,18.479,13.382c4.879,3.448,8.057,4.604,9.537,3.448
		c1.209-1.381,3.2-3.702,5.925-6.905c2.436-2.867,5.453-6.433,9.091-10.75l-25.206-17.217l-20.38-13.908L202.739,188.964z"/>
	<path clip-path="url(#SVGID_2_)" fill="#C0BEBE" d="M202.739,188.964l122.047,2.736h0.021l0.017,0.012l20.359,13.907l25.215,17.207
		c4.028-4.967,8.372-10.284,13.006-15.927c3.942-4.804,8.092-9.841,12.473-15.132c1.113-1.304,2.165-2.558,3.248-3.839
		c5.795-6.886,11.278-13.485,16.465-19.829c2.393-2.928,4.741-5.818,6.991-8.623c-33.189-18.335-63.719-36.104-91.698-53.314
		c-6.188-3.805-12.293-7.592-18.226-11.34c-11.577-7.405-22.505-14.534-32.854-21.398l-5.32,34.99l-43.792,19.082l-47.194,8.791
		l-0.006,0.008l5.933,17.352l12.526,36.613L202.739,188.964z"/>
	<path clip-path="url(#SVGID_2_)" fill="#C0BEBE" d="M46.22,103.131l20.677-10.223L61.674,78.51
		c-5.23,7.083-10.074,14.665-14.505,22.798C46.84,101.906,46.534,102.542,46.22,103.131"/>
	<path clip-path="url(#SVGID_2_)" fill="#C0BEBE" d="M136.585,52.065c0.076-0.129,0.145-0.262,0.222-0.391
		c0.062-0.101,0.132-0.205,0.196-0.306c0.191-0.31,0.382-0.618,0.589-0.931C148.908,32.235,162.161,15.424,177.317,0
		c-2.299,0.796-4.599,1.615-6.872,2.459c-6.206,2.305-12.296,4.823-18.305,7.493c-7.711,3.43-15.274,7.133-22.654,11.173
		c-12.714,6.936-25.219,15.511-37.532,25.683c-1.447,1.197-2.893,2.403-4.335,3.644c-0.968,0.829-1.936,1.682-2.901,2.534
		C76.31,60.549,68.661,69.072,61.674,78.51l5.23,14.397l64.708-32.038C133.237,57.902,134.888,54.961,136.585,52.065"/>
	<path clip-path="url(#SVGID_2_)" fill="#C0BEBE" d="M46.231,103.131c-3.36,6.316-6.241,13.038-8.723,20.11
		c-1.37,3.91-2.653,7.898-3.745,12.054c-0.466,1.775-0.877,3.6-1.293,5.419c-1.935,8.496-3.367,17.437-4.21,26.906
		c-0.562,6.174-0.759,12.574-0.603,19.193c0.493,20.514,4.417,43.144,11.785,67.905c1.717,5.77,3.723,11.695,5.944,17.741
		c1.105,3,2.245,6.019,3.463,9.079L66.897,92.912L46.231,103.131z"/>
	<polygon clip-path="url(#SVGID_2_)" fill="#FFFFFF" points="438.006,515.332 438.006,515.343 441.743,515.343 445.661,515.343 
		445.661,527.871 445.661,606.372 441.743,606.372 438.006,606.372 438.006,606.383 446.357,606.383 446.357,527.871 
		446.357,515.332 	"/>
	<polygon clip-path="url(#SVGID_2_)" fill="#FFFFFF" points="422.69,606.371 433.907,606.371 445.662,606.371 445.662,527.87 
		445.662,515.344 433.907,515.344 422.69,515.344 422.69,527.87 	"/>
	<polygon clip-path="url(#SVGID_2_)" fill="#FFFFFF" points="419.224,515.332 410.83,515.332 392.812,515.332 355.067,515.332 
		350.128,515.332 350.128,606.372 365.456,606.372 392.482,606.372 438.005,606.372 438.005,527.871 438.005,515.343 
		419.224,515.343 	"/>
	<polygon clip-path="url(#SVGID_2_)" fill="#DBDBDA" points="345.414,515.332 324.808,515.332 244.037,515.332 196.442,515.332 
		139.169,515.332 137.039,515.332 114.944,515.332 91.351,515.332 91.351,606.372 200.398,606.372 350.128,606.372 350.128,515.332 
			"/>
	<polygon clip-path="url(#SVGID_2_)" fill="#C7C5C5" points="89.485,606.371 89.496,606.371 89.496,515.331 31.396,515.331 
		27.557,515.331 27.553,515.331 27.553,515.344 0,515.344 0,606.371 5.287,606.371 	"/>
	<rect x="89.496" y="515.332" clip-path="url(#SVGID_2_)" fill="#C7C5C5" width="1.854" height="91.04"/>
	<polygon clip-path="url(#SVGID_2_)" fill="#FFFFFF" points="359.466,475.447 414.146,475.447 414.146,484.374 414.146,515.332 
		419.829,515.332 419.829,484.387 419.829,475.435 335.404,475.435 335.404,475.447 	"/>
	<polygon clip-path="url(#SVGID_2_)" fill="#FFFFFF" points="410.83,515.332 419.224,515.332 419.224,484.374 419.224,475.448 
		413.396,475.448 410.83,475.448 410.83,484.387 	"/>
	<polygon clip-path="url(#SVGID_2_)" fill="#FFFFFF" points="345.414,515.332 350.128,515.332 355.067,515.332 392.811,515.332 
		410.83,515.332 410.83,484.387 410.83,475.448 405.347,475.448 366.248,475.448 351.108,475.448 324.808,475.448 324.808,515.332 	
		"/>
	<polygon clip-path="url(#SVGID_2_)" fill="#DBDBDA" points="196.443,515.332 244.038,515.332 324.808,515.332 324.808,475.448 
		304.168,475.448 299.479,475.448 247.201,475.448 247.209,475.435 240.438,475.435 235.204,475.435 205.711,475.435 
		139.17,475.435 139.17,515.332 	"/>
	<polygon clip-path="url(#SVGID_2_)" fill="#C7C5C5" points="31.396,515.332 89.496,515.332 91.35,515.332 114.944,515.332 
		137.038,515.332 137.038,475.435 122.904,475.435 122.918,475.448 110.887,475.448 27.557,475.448 27.557,515.332 	"/>
	<rect x="137.038" y="475.435" clip-path="url(#SVGID_2_)" fill="#C7C5C5" width="2.131" height="39.897"/>
	<polygon clip-path="url(#SVGID_2_)" fill="#DBDBDA" points="217.057,461.457 194.266,443.908 205.711,475.421 205.706,475.421 
		205.711,475.435 235.204,475.435 	"/>
	<path clip-path="url(#SVGID_2_)" fill="#C7C5C5" d="M137.035,475.422h68.671l-11.439-31.514l-0.01-0.008L92.4,365.415
		c0.012,0.019,0.021,0.038,0.038,0.051l-0.007,0.006l0.004,0.008c-0.227,0.222-2.679,2.47-7.291,6.656
		c-0.944,0.858-1.946,1.77-3.073,2.795c-1.284,1.123-2.628,2.316-3.978,3.518c-5.558,4.953-11.655,10.517-18.367,16.786
		c-3.798,3.638-7.3,7.021-10.525,10.163c-3.609,3.524-6.871,6.742-9.76,9.634c-2.194,2.059-3.781,3.641-4.816,4.787
		c-1.225,1.361-1.661,2.105-1.26,2.187c0.107,0.019,0.266-0.003,0.483-0.07h0.003h0.001c5.076,0.122,10.286,1.004,15.615,2.573
		c4.154,1.221,8.385,2.884,12.69,4.979c2.026,0.984,4.063,2.028,6.123,3.203c12.097,7.174,23.604,15.376,34.51,24.575
		c0.62,0.546,1.218,1.058,1.843,1.624l47.437-47.456l-47.437,47.456c2.703,2.35,5.308,4.646,7.772,6.838
		c3.813,3.441,7.297,6.649,10.501,9.694H137.035z"/>
	<path clip-path="url(#SVGID_2_)" fill="#CCCBCB" d="M217.057,461.457l18.136,13.965H247.2c1.123-1.84,2.204-3.587,3.26-5.276
		c2.659-4.271,5.119-8.07,7.353-11.378c1.098-1.63,2.146-3.15,3.139-4.551c6.041-8.041,9.939-13.938,11.686-17.649
		c1.413-4.017,0.4-7.735-3.051-11.182c-3.719-3.175-10.478-8.227-20.285-15.124c-8.402-5.657-19.374-13.911-32.894-24.743
		c-2.181-1.745-4.412-3.541-6.726-5.421c-0.332-0.275-0.688-0.582-1.023-0.861c-1.208-1.007-2.438-2.043-3.688-3.104
		c-0.624-0.53-1.244-1.056-1.879-1.6c-0.368-0.312-0.735-0.62-1.096-0.939c0.361,0.319,0.728,0.628,1.096,0.939
		c-0.187-0.161-0.385-0.335-0.573-0.497c-1.149-0.987-2.316-2-3.499-3.033c-0.63-0.55-1.248-1.083-1.888-1.646
		c-0.473-0.411-0.956-0.838-1.432-1.256c0.476,0.418,0.959,0.845,1.432,1.256c-0.352-0.31-0.724-0.646-1.079-0.959
		c-1.125-0.994-2.264-2.007-3.419-3.04c-0.719-0.643-1.428-1.272-2.159-1.931c-0.464-0.418-0.93-0.846-1.407-1.258
		c0.477,0.412,0.943,0.84,1.407,1.258c-0.322-0.29-0.661-0.604-0.986-0.897c-1.237-1.117-2.49-2.258-3.758-3.417
		c-0.838-0.767-1.675-1.53-2.527-2.314c-1.633-1.505-3.299-3.054-4.984-4.624c-0.622-0.581-1.239-1.155-1.869-1.745
		c-0.014-0.015-0.028-0.027-0.042-0.04c0.036,0.033,0.072,0.068,0.108,0.102c-0.036-0.033-0.072-0.068-0.108-0.102
		c-1.487-1.394-2.993-2.813-4.519-4.257c-0.174-0.163-0.344-0.323-0.521-0.488c0.177,0.165,0.347,0.325,0.521,0.488
		c-0.618-0.586-1.246-1.185-1.871-1.778c-0.2-0.191-0.398-0.378-0.599-0.569c-1.702-1.62-3.42-3.262-5.169-4.943
		c0.172,0.165,0.347,0.327,0.512,0.495c-0.165-0.168-0.34-0.33-0.512-0.495c-1.443-1.389-2.905-2.801-4.38-4.23
		c-0.062-0.059-0.121-0.118-0.185-0.178c0.064,0.06,0.123,0.119,0.185,0.178c-1.301-1.261-2.612-2.535-3.938-3.829
		c-0.099-0.094-0.195-0.187-0.296-0.279c0.101,0.093,0.197,0.186,0.296,0.279c-1.341-1.309-2.694-2.632-4.06-3.974l42.481,117.085
		l0.01,0.008L217.057,461.457z M206.746,377.652c-0.482-0.402-0.987-0.83-1.48-1.26C205.759,376.822,206.264,377.25,206.746,377.652
		 M200.63,372.415c-0.572-0.493-1.151-1.004-1.746-1.511C199.479,371.411,200.058,371.922,200.63,372.415 M178.633,352.567
		c0.501,0.465,0.994,0.923,1.491,1.387C179.627,353.49,179.134,353.032,178.633,352.567 M182.218,355.891
		c0.52,0.488,1.051,0.976,1.578,1.459C183.269,356.866,182.738,356.379,182.218,355.891 M185.669,359.068
		c0.56,0.505,1.11,1.017,1.667,1.524C186.779,360.085,186.229,359.573,185.669,359.068 M192.424,365.174
		c0.572,0.522,1.159,1.035,1.724,1.566C193.583,366.209,192.996,365.696,192.424,365.174"/>
	<path clip-path="url(#SVGID_2_)" fill="#DBDBDA" d="M136.169,283.802l15.596,42.989c0.618,0.604,1.236,1.206,1.857,1.811
		l-8.431-44.8H136.169z"/>
	<path clip-path="url(#SVGID_2_)" fill="#DBDBDA" d="M116.896,283.802h-0.007c5.938,9.851,13.094,19.539,21.515,29.061
		c0.146,0.165,0.289,0.33,0.435,0.494c1.218,1.37,2.469,2.735,3.74,4.097c0.208,0.223,0.408,0.446,0.617,0.668
		c1.452,1.546,2.936,3.086,4.457,4.622c0.599,0.597,1.186,1.173,1.777,1.755c0.445,0.438,0.895,0.883,1.34,1.32
		c0.332,0.325,0.665,0.648,0.996,0.973l-15.596-42.989H116.896z"/>
	<path clip-path="url(#SVGID_2_)" fill="#DBDBDA" d="M201.954,190.283l-56.757,93.509l0.002,0.01h-0.007l8.43,44.8
		c5.437,5.333,10.667,10.39,15.697,15.182c0.201,0.191,0.399,0.381,0.599,0.57c2.091,1.99,4.137,3.919,6.157,5.815
		c-0.363-0.338-0.728-0.677-1.084-1.026c0.356,0.35,0.721,0.688,1.084,1.026c0.09,0.084,0.185,0.175,0.275,0.259
		c0.629,0.59,1.247,1.166,1.869,1.746c1.686,1.574,3.349,3.118,4.984,4.623c0.852,0.785,1.689,1.55,2.526,2.315
		c1.269,1.16,2.522,2.3,3.759,3.417c1.06,0.959,2.108,1.901,3.145,2.828c1.154,1.032,2.294,2.046,3.419,3.04
		c1.001,0.884,1.989,1.752,2.967,2.605c1.183,1.032,2.351,2.046,3.499,3.032c0.826,0.712,1.643,1.409,2.452,2.097
		c1.249,1.061,2.48,2.099,3.688,3.104c0.342,0.285,0.692,0.58,1.03,0.861c2.312,1.88,4.54,3.676,6.719,5.421
		c13.523,10.823,24.492,19.077,32.898,24.743c9.81,6.905,16.55,11.935,20.28,15.113c3.451,3.458,4.476,7.176,3.056,11.192
		c-1.746,3.71-5.649,9.608-11.691,17.657c-0.99,1.396-2.038,2.914-3.138,4.542c-2.232,3.314-4.688,7.114-7.354,11.379
		c-1.054,1.693-2.133,3.445-3.251,5.289h52.268L201.954,190.283z M167.462,341.999c0.4,0.396,0.811,0.798,1.226,1.178
		C168.273,342.797,167.862,342.395,167.462,341.999"/>
	<path clip-path="url(#SVGID_2_)" fill="#FFFFFF" d="M324.804,191.711l-122.065-2.748l-0.787,1.3l0.003,0.008l0.002-0.003
		l97.518,285.166h4.701l50.73-74.364L228.93,262.298L354.906,401.07l-50.73,74.364h20.632h13.175h13.146
		c4.832-3.047,10.07-6.478,15.826-10.438c5.132-3.513,10.065-7.252,14.813-11.207c4.579-3.814,8.983-7.83,13.2-12.055
		c7.291-7.532,12.502-15.39,15.643-23.584c0.447-1.17,0.854-2.347,1.218-3.532c0.178-0.972,0.257-1.996,0.236-3.07
		c-0.067-3.587-1.252-7.754-3.518-12.483c-2.491-5.197-6.294-11.074-11.44-17.651c-4.796-6.04-10.239-12.392-16.256-19.018
		c-8.003-8.813-17.046-18.124-27.208-27.975c-17.529-16.925-35.344-33.309-53.482-49.15c-2.26-1.971-4.474-3.903-6.639-5.794
		c-15.158-13.238-28.009-24.507-38.571-33.804c-3.606-3.266-6.664-6.113-9.197-8.558c-5.959-5.743-8.957-9.222-8.957-10.42
		c11.5-10.361,22.719-16.373,33.617-18.066c10.946-2.043,21.305-1.341,31.048,2.119c9.761,3.44,18.397,7.756,25.896,12.913
		c7.728,5.204,13.893,9.657,18.479,13.382c4.878,3.449,8.056,4.604,9.537,3.449c1.209-1.381,3.201-3.703,5.925-6.905
		c2.437-2.867,5.453-6.434,9.091-10.75l-25.206-17.218L324.804,191.711z"/>
	<polygon clip-path="url(#SVGID_2_)" fill="#DDDDDC" points="183.492,136.295 189.425,153.647 201.951,190.26 202.739,188.964 
		324.787,191.7 230.69,127.496 183.498,136.287 	"/>
	<path clip-path="url(#SVGID_2_)" fill="#E3E3E4" d="M399.125,187.928l-124.641-79.514l-43.793,19.082l94.096,64.204h0.02
		l0.019,0.012l24.229,0.541l-24.229-0.541l20.357,13.907l25.217,17.206c4.026-4.966,8.372-10.284,13.006-15.926
		c3.94-4.805,8.091-9.841,12.471-15.132C396.99,190.463,398.041,189.208,399.125,187.928"/>
	<path clip-path="url(#SVGID_2_)" fill="#FFFFFF" d="M399.125,187.928c5.794-6.886,11.279-13.485,16.464-19.829
		c2.394-2.928,4.741-5.818,6.991-8.623c-33.188-18.335-63.717-36.104-91.698-53.314c-6.187-3.805-12.292-7.591-18.224-11.34
		c-11.579-7.405-22.506-14.534-32.854-21.398l-5.319,34.99L399.125,187.928z"/>
	<path clip-path="url(#SVGID_2_)" fill="#D8D9D7" d="M219.594,88.621l13.049,10.218l-20.529,15.968l0.012,0.008l18.561,12.679
		l43.794-19.08l5.321-34.991c-5.571-3.709-10.963-7.33-16.184-10.876c-5.517-3.743-10.843-7.403-15.963-10.982L219.594,88.621z"/>
	<polygon clip-path="url(#SVGID_2_)" fill="#D8D9D7" points="212.114,114.806 232.643,98.839 219.594,88.62 203.97,109.253 	"/>
	<polygon clip-path="url(#SVGID_2_)" fill="#D8D9D7" points="203.965,109.259 183.5,136.285 213.632,130.668 230.681,127.496 
		230.688,127.493 212.126,114.814 212.114,114.806 212.104,114.814 	"/>
	<polygon clip-path="url(#SVGID_2_)" fill="#E5E5E4" points="183.498,136.271 186.079,93.901 184.767,115.386 	"/>
	<path clip-path="url(#SVGID_2_)" fill="#E5E5E4" d="M229.076,38.374c-22.648-16.396-39.695-29.027-51.191-37.946l-0.044,0.816
		l-3.444,77.82l-0.722,0.477l0.001,0.025l0.725-0.478v16.439l11.738-2.619l0.161-2.641l0.004,0.004l7.959-8.957l-18.146-3.381
		l34.577,4.637l36.951-31.011l0.01,0.007l0.005-0.007c-0.542-0.37-1.099-0.748-1.63-1.106
		C240.112,46.3,234.471,42.284,229.076,38.374"/>
	<polygon clip-path="url(#SVGID_2_)" fill="#E5E5E4" points="183.489,136.298 183.49,136.29 183.489,136.288 183.49,136.286 
		184.766,115.386 185.003,111.493 184.766,115.386 186.079,93.901 186.139,92.908 174.401,95.526 174.401,98.236 	"/>
	<polygon clip-path="url(#SVGID_2_)" fill="#E5E5E4" points="200.007,105.398 212.112,82.761 212.104,82.755 211.515,82.677 
		210.707,82.572 210.62,82.645 193.906,98.662 	"/>
	<polygon clip-path="url(#SVGID_2_)" fill="#E5E5E4" points="186.079,93.901 183.498,136.271 199.939,105.524 193.599,98.957 
		192.327,100.175 186.3,90.274 186.304,90.271 186.3,90.267 186.14,92.908 	"/>
	<polygon clip-path="url(#SVGID_2_)" fill="#E5E5E4" points="186.14,92.908 186.14,92.908 186.079,93.902 	"/>
	<polygon clip-path="url(#SVGID_2_)" fill="#E5E5E4" points="193.905,98.663 193.6,98.957 199.938,105.524 200.006,105.398 	"/>
	<polygon clip-path="url(#SVGID_2_)" fill="#E5E5E4" points="174.401,95.527 174.401,79.088 173.677,79.566 174.297,95.55 	"/>
	<polygon clip-path="url(#SVGID_2_)" fill="#E5E5E4" points="174.401,98.237 174.401,95.527 174.297,95.55 	"/>
	<polygon clip-path="url(#SVGID_2_)" fill="#E5E5E4" points="202.728,89.251 210.619,82.645 210.697,82.57 210.694,82.569 
		176.117,77.933 194.263,81.313 186.304,90.271 190.626,95.042 	"/>
	<polygon clip-path="url(#SVGID_2_)" fill="#E5E5E4" points="210.62,82.645 202.728,89.252 190.626,95.043 193.906,98.662 	"/>
	<polygon clip-path="url(#SVGID_2_)" fill="#E5E5E4" points="192.327,100.175 193.599,98.957 190.077,95.307 190.627,95.042 
		186.304,90.271 186.301,90.274 	"/>
	<polygon clip-path="url(#SVGID_2_)" fill="#E5E5E4" points="190.626,95.043 190.077,95.306 193.599,98.956 193.906,98.663 	"/>
	<polygon clip-path="url(#SVGID_2_)" fill="#E5E5E4" points="210.697,82.57 210.708,82.571 210.709,82.57 211.514,82.677 
		212.114,82.755 212.111,82.762 219.594,88.621 247.655,51.565 247.648,51.561 210.694,82.569 	"/>
	<polygon clip-path="url(#SVGID_2_)" fill="#E5E5E4" points="200.007,105.398 202.739,108.414 203.97,109.253 219.594,88.621 
		212.112,82.761 	"/>
	<polygon clip-path="url(#SVGID_2_)" fill="#E5E5E4" points="183.499,136.285 203.965,109.259 202.727,108.415 199.939,105.524 
		183.497,136.271 183.497,136.285 	"/>
	<polygon clip-path="url(#SVGID_2_)" fill="#E5E5E4" points="173.675,79.541 174.397,79.063 177.841,1.243 173.668,79.353 	"/>
	<path clip-path="url(#SVGID_2_)" fill="#DBDBDA" d="M98.15,179.004l-3.854-10.622c-0.605,4.615-1.103,9.266-1.439,13.937
		c-0.027,0.377-0.042,0.754-0.066,1.131c-0.043,0.908-0.079,1.816-0.132,2.721L98.15,179.004z"/>
	<path clip-path="url(#SVGID_2_)" fill="#DBDBDA" d="M136.169,283.802L98.15,179.006l-5.481,7.153
		c-0.822,16.889,0.842,33.772,5.031,50.65c0.022,0.089,0.046,0.178,0.068,0.266c0.68,2.721,1.423,5.442,2.234,8.163
		c0.04,0.133,0.083,0.266,0.123,0.398c0.818,2.723,1.696,5.446,2.646,8.169c0.444,1.316,0.918,2.628,1.404,3.938
		c3.296,8.821,7.57,17.502,12.72,26.058H136.169z"/>
	<polygon clip-path="url(#SVGID_2_)" fill="#DBDBDA" points="120.114,150.339 98.15,179.006 136.169,283.801 145.192,283.801 	"/>
	<path clip-path="url(#SVGID_2_)" fill="#DBDBDA" d="M104.892,122.033c-0.257,0.771-0.509,1.544-0.758,2.317
		c-0.389,1.208-0.777,2.416-1.147,3.629c-0.005,0.016-0.009,0.032-0.014,0.047c0.418-1.39,0.863-2.765,1.32-4.142
		c-0.457,1.377-0.902,2.752-1.32,4.142c-0.367,1.203-0.719,2.41-1.067,3.618c-0.304,1.053-0.603,2.107-0.893,3.164
		c-0.406,1.484-0.798,2.971-1.175,4.462c-0.181,0.71-0.357,1.421-0.531,2.132c-0.451,1.854-0.888,3.711-1.296,5.576
		c-0.056,0.255-0.11,0.511-0.165,0.766c-1.466,6.804-2.651,13.683-3.55,20.639l3.854,10.622l21.964-28.665L104.892,122.033z
		 M101.022,134.811c0.277-1.088,0.587-2.157,0.905-3.221C101.609,132.654,101.299,133.723,101.022,134.811"/>
	<polygon clip-path="url(#SVGID_2_)" fill="#C7C5C5" points="201.946,190.269 189.425,153.647 183.489,136.298 169.997,138.801 
		183.489,136.298 174.401,98.237 159.567,98.839 159.564,98.837 159.555,98.839 120.114,150.339 145.198,283.792 201.953,190.276 
		201.95,190.269 201.953,190.264 201.951,190.259 	"/>
	<polygon clip-path="url(#SVGID_2_)" fill="#D2D3D4" points="174.401,98.237 174.297,95.55 159.564,98.837 159.567,98.839 	"/>
	<polygon clip-path="url(#SVGID_2_)" fill="#D2D3D4" points="152.082,93.829 155.78,96.308 159.564,98.837 174.297,95.55 
		173.676,79.566 156.888,90.649 	"/>
	<path clip-path="url(#SVGID_2_)" fill="#CACACB" d="M131.715,60.822c-6.684,12.204-12.805,24.985-18.293,38.385
		c-0.247,0.608-0.49,1.22-0.735,1.831c-0.656,1.627-1.31,3.258-1.947,4.904c-0.942,2.436-1.87,4.886-2.772,7.362
		c-1.002,2.668-1.942,5.354-2.851,8.042c-0.076,0.226-0.147,0.453-0.222,0.678l15.223,28.304l39.438-51.489l-3.776-2.531
		l-3.709-2.479l4.818-3.18l16.787-11.108l-0.008-0.188l4.174-78.11l0.036-0.815c-0.179-0.141-0.396-0.288-0.561-0.429
		c-15.156,15.425-28.409,32.247-39.725,50.453c-0.207,0.311-0.397,0.613-0.588,0.916c-0.065,0.105-0.138,0.212-0.201,0.317
		c-0.074,0.125-0.144,0.255-0.217,0.38c-1.681,2.871-3.25,5.832-4.856,8.746l-0.117,0.058l-0.003,0.005L131.715,60.822z"/>
	<path clip-path="url(#SVGID_2_)" fill="#D2D3D4" d="M92.385,365.392l101.868,78.501l-42.482-117.086
		c-1.383-1.349-2.717-2.671-4.123-4.05c-19.117-19.327-32.961-39.337-41.528-60.037c-0.685-1.654-1.327-3.313-1.944-4.976
		c-0.49-1.31-0.959-2.622-1.405-3.938c-0.95-2.723-1.826-5.446-2.645-8.169c-0.04-0.133-0.084-0.265-0.123-0.398
		c-0.813-2.721-1.553-5.442-2.235-8.163c-0.022-0.089-0.046-0.177-0.068-0.266c-4.428-17.786-6.064-35.566-4.909-53.359
		c0.017-0.377,0.028-0.755,0.055-1.132c0.342-4.698,0.832-9.358,1.431-13.988L66.903,92.924L48.855,281.553
		c-0.002-0.005-0.004-0.01-0.004-0.01l-0.004,0.008l0.008,0.019c0.197,0.496,0.423,1.006,0.623,1.504
		c7.644,18.932,17.546,39.054,29.795,60.415c4.109,7.163,8.475,14.46,13.109,21.897L92.385,365.392z"/>
	<path clip-path="url(#SVGID_2_)" fill="#D3D3D3" d="M97.846,147.744c0.025-0.117,0.046-0.235,0.071-0.352
		c-0.028,0.144-0.057,0.287-0.091,0.432c0.034-0.145,0.063-0.288,0.091-0.432c0.007-0.03,0.013-0.06,0.019-0.089
		c0.025-0.127,0.051-0.253,0.081-0.38c-0.03,0.127-0.056,0.253-0.081,0.38c0.024-0.109,0.052-0.216,0.075-0.324
		c0.411-1.865,0.843-3.724,1.296-5.577c0.012-0.047,0.022-0.094,0.033-0.14c-0.011,0.045-0.023,0.091-0.034,0.136
		c0.011-0.045,0.023-0.091,0.034-0.136c0.122-0.502,0.245-1.004,0.37-1.506c0.039-0.156,0.078-0.313,0.116-0.47
		c-0.038,0.157-0.077,0.314-0.116,0.47c0.041-0.162,0.087-0.323,0.128-0.485c0.379-1.491,0.768-2.979,1.175-4.463
		c0.289-1.057,0.59-2.111,0.893-3.164c0.354-1.223,0.709-2.446,1.081-3.665c0.37-1.213,0.758-2.421,1.147-3.628
		c0.252-0.781,0.483-1.568,0.742-2.347l0.016,0.03c0.001-0.003,0.002-0.006,0.002-0.006l-0.01-0.024
		c0.074-0.22,0.159-0.437,0.233-0.657c0.244-0.723,0.486-1.448,0.737-2.169c0.014-0.042,0.029-0.086,0.043-0.127
		c-0.014,0.041-0.029,0.085-0.043,0.127c0.682-1.964,1.38-3.924,2.114-5.873c0.856-2.349,1.73-4.678,2.624-6.99
		c0.05-0.129,0.096-0.261,0.146-0.391c-0.05,0.13-0.096,0.262-0.146,0.391c0.048-0.125,0.099-0.247,0.148-0.372
		c0.618-1.602,1.257-3.183,1.892-4.768c0.272-0.669,0.537-1.341,0.802-2.025c-0.265,0.684-0.53,1.356-0.802,2.025
		c0.019-0.045,0.037-0.091,0.055-0.137c0.246-0.609,0.487-1.223,0.735-1.83c5.451-13.379,11.516-26.156,18.188-38.333L66.905,92.908
		l27.373,75.423C95.177,161.392,96.374,154.53,97.846,147.744"/>
	<path clip-path="url(#SVGID_2_)" fill="#D2D3D4" d="M46.219,103.131l20.677-10.223L61.674,78.51
		c-5.23,7.083-10.075,14.665-14.505,22.798C46.839,101.907,46.533,102.542,46.219,103.131"/>
	<path clip-path="url(#SVGID_2_)" fill="#D2D3D4" d="M170.445,2.46c-6.206,2.304-12.297,4.823-18.306,7.493
		c-7.71,3.43-15.274,7.133-22.653,11.172c-12.714,6.936-25.22,15.512-37.532,25.684c-1.447,1.196-2.894,2.403-4.335,3.644
		c-0.968,0.829-1.937,1.681-2.901,2.534C76.311,60.55,68.662,69.073,61.674,78.51l5.23,14.398l64.708-32.039
		c1.625-2.966,3.276-5.908,4.973-8.803c0.075-0.129,0.145-0.263,0.221-0.391c0.063-0.102,0.133-0.205,0.197-0.307
		c0.191-0.309,0.382-0.617,0.588-0.93C148.908,32.235,162.162,15.424,177.316,0C175.018,0.796,172.718,1.615,170.445,2.46"/>
	<path clip-path="url(#SVGID_2_)" fill="#C0BEBE" d="M66.896,92.912L46.23,103.131c-3.359,6.316-6.241,13.039-8.723,20.11
		c-1.37,3.911-2.652,7.898-3.745,12.054c-0.466,1.775-0.876,3.6-1.293,5.419c-1.935,8.496-3.366,17.437-4.21,26.906
		c-0.562,6.174-0.759,12.574-0.603,19.193c0.493,20.515,4.417,43.145,11.785,67.905c1.717,5.77,3.723,11.696,5.945,17.741
		c1.104,3,2.244,6.019,3.463,9.079L66.896,92.912z"/>
</g>
</svg>
